<?xml version="1.0" encoding="UTF-8" standalone="no"?>
<!-- Created with Inkscape (http://www.inkscape.org/) -->

<svg
   width="200"
   height="200"
   viewBox="0 0 200 200"
   version="1.1"
   id="svg1"
   xml:space="preserve"
   xmlns:inkscape="http://www.inkscape.org/namespaces/inkscape"
   xmlns:sodipodi="http://sodipodi.sourceforge.net/DTD/sodipodi-0.dtd"
   xmlns="http://www.w3.org/2000/svg"
   xmlns:svg="http://www.w3.org/2000/svg"><sodipodi:namedview
     id="namedview1"
     pagecolor="#505050"
     bordercolor="#eeeeee"
     borderopacity="1"
     inkscape:showpageshadow="0"
     inkscape:pageopacity="0"
     inkscape:pagecheckerboard="0"
     inkscape:deskcolor="#505050"
     inkscape:document-units="px" /><defs
     id="defs1" /><g
     inkscape:label="Layer 1"
     inkscape:groupmode="layer"
     id="layer1"
     transform="translate(-483.55286,-224.55554)"><circle
       style="fill:#ffffff;stroke-width:0.675571"
       id="path7"
       cx="583.55286"
       cy="324.55554"
       r="100" /><path
       style="fill:#000000;stroke:none;stroke-width:1.11715"
       d="m 516.21065,331.29928 v -43.34967 h 3.07301 c 2.25181,0 3.59437,0.35133 5.02397,1.31469 l 1.95095,1.31469 0.14769,37.79965 0.1477,37.79966 1.5748,-0.33694 c 0.86615,-0.18531 3.38669,-0.72464 5.60121,-1.19851 15.26272,-3.26595 30.68018,-1.98986 42.10061,3.48461 5.22352,2.50394 5.05653,2.77414 -0.78843,1.27562 -20.88748,-5.3551 -41.13067,-4.14391 -54.68857,3.27214 -1.98456,1.08554 -3.7286,1.97371 -3.87563,1.97371 -0.14702,0 -0.26731,-19.50734 -0.26731,-43.34965 z m 130.10652,41.35033 c -12.92466,-7.34301 -33.76877,-8.5828 -54.58279,-3.24653 -5.84494,1.49852 -6.01194,1.22832 -0.78843,-1.27562 11.42045,-5.47447 26.8379,-6.75056 42.10062,-3.48461 2.21451,0.47387 4.73505,1.0132 5.6012,1.19851 l 1.5748,0.33694 0.1477,-37.79966 0.1477,-37.79965 1.95095,-1.31469 c 1.4296,-0.96336 2.77215,-1.31469 5.02397,-1.31469 h 3.07301 v 43.34967 c 0,23.84231 -0.19379,43.33283 -0.43062,43.31227 -0.23685,-0.0206 -1.955,-0.90343 -3.81811,-1.96194 z m -70.96726,-9.27602 c -10.01853,-6.7933 -25.11935,-9.38452 -38.61276,-6.62573 l -5.02398,1.02718 v -39.21897 c 0,-39.21896 0,-39.21896 1.29188,-39.30244 4.16049,-0.26879 7.61138,0.69495 11.19235,3.12571 l 1.86212,1.26402 0.004,33.35014 0.003,33.35014 5.88522,0.64835 c 11.27171,1.24175 20.39742,5.73107 26.364,12.96957 2.18085,2.64574 1.64597,2.53972 -2.96667,-0.58797 z m 13.04549,0.66628 c 5.95732,-7.22724 15.26428,-11.8346 26.35168,-13.04523 l 5.9621,-0.651 0.004,-33.35014 0.004,-33.35014 1.86213,-1.26402 c 3.58097,-2.43076 7.03186,-3.3945 11.19234,-3.12571 1.29187,0.0835 1.29187,0.0835 1.29187,39.30244 v 39.21897 l -5.02396,-1.02718 c -13.52677,-2.7656 -28.33532,-0.21333 -38.85644,6.69695 -4.74198,3.11455 -4.89047,3.14625 -2.78757,0.59506 z m -7.73914,-4.14303 c -1.08143,-5.33589 -16.03266,-14.64876 -26.11992,-16.26966 l -4.4498,-0.71502 v -35.51962 -35.51962 h 1.60187 c 8.61382,0 20.38528,7.75365 26.75013,17.61984 l 2.66234,4.12689 -0.15289,33.48109 c -0.0841,18.4146 -0.21538,33.17284 -0.29173,32.7961 z m -3.29333,-24.29685 c 1.60127,-2.59089 -15.10695,-14.92282 -20.21854,-14.92282 -3.00877,0 -2.2945,1.70889 1.07101,2.56237 3.84544,0.9752 8.55327,4.00459 13.59885,8.75056 4.58961,4.31708 4.96192,4.55929 5.54868,3.60989 z m 0.0318,-11.53484 c 1.57977,-2.5561 -15.60663,-14.87133 -20.75354,-14.87133 -2.10673,0 -1.6058,1.85748 0.6259,2.32087 4.38527,0.91056 12.2569,6.12418 17.18543,11.38245 1.81964,1.94138 2.33725,2.14685 2.94221,1.16801 z m -10e-4,-11.48126 c 0.46189,-0.74736 -3.92869,-5.37849 -8.35939,-8.81742 -6.18644,-4.80165 -13.14656,-7.22973 -13.65644,-4.76412 -0.15283,0.73909 0.16253,1.00479 1.1926,1.00479 3.46137,0 14.93458,7.62324 17.9478,11.9252 0.96461,1.37718 2.24732,1.66783 2.87543,0.65155 z m 0.0274,-11.5276 c 1.66193,-2.68896 -18.6368,-16.36883 -21.585,-14.54675 -1.3473,0.83268 -0.37187,1.78835 2.76663,2.71055 4.18902,1.23089 9.13132,4.51885 13.57164,9.02878 3.44484,3.49886 4.47784,4.0516 5.24678,2.80742 z m 8.26414,25.97987 v -33.43087 l 2.65769,-4.11972 c 6.36018,-9.85896 18.13444,-17.61265 26.74549,-17.61265 h 1.60187 v 35.51962 35.51962 l -4.44979,0.71502 c -10.0198,1.61006 -19.50565,7.16707 -24.92325,14.60059 l -1.63201,2.23927 z m 9.18941,4.98082 c 5.17556,-4.7994 9.86878,-7.8092 13.6868,-8.77744 3.3655,-0.85348 4.07976,-2.56237 1.071,-2.56237 -5.11158,0 -21.8198,12.33193 -20.21854,14.92282 0.56512,0.91438 0.72157,0.81173 5.46074,-3.58301 z m -1.9853,-9.65706 c 4.2898,-4.41601 10.52362,-8.74847 14.51785,-10.0898 3.99912,-1.34297 5.53644,-3.0763 2.72844,-3.0763 -5.14691,0 -22.33331,12.31523 -20.75355,14.87133 0.62184,1.00617 1.09847,0.77443 3.50726,-1.70523 z m -0.6305,-10.42758 c 3.01323,-4.30196 14.48644,-11.9252 17.94782,-11.9252 1.03007,0 1.34543,-0.2657 1.19259,-1.00479 -0.50988,-2.46561 -7.47,-0.0375 -13.65644,4.76412 -4.43071,3.43893 -8.82129,8.07006 -8.35939,8.81742 0.6281,1.01628 1.91081,0.72563 2.87542,-0.65155 z m 3.52095,-14.7415 c 4.81928,-4.56184 9.97696,-7.71313 13.79692,-8.42976 1.87413,-0.35159 2.57288,-1.50467 1.36441,-2.25154 -2.94818,-1.82208 -23.24692,11.85779 -21.58505,14.54675 0.75303,1.21842 1.57634,0.72299 6.42372,-3.86545 z"
       id="path5"
       inkscape:export-filename="book-icon.svg"
       inkscape:export-xdpi="125.21967"
       inkscape:export-ydpi="125.21967" /></g></svg>
